<svg xmlns="http://www.w3.org/2000/svg" xmlns:xlink="http://www.w3.org/1999/xlink" width="500" zoomAndPan="magnify" viewBox="0 0 375 374.999991" height="500" preserveAspectRatio="xMidYMid meet" version="1.0"><defs><g/><clipPath id="c7fa5306ed"><path d="M 197 116 L 313 116 L 313 214 L 197 214 Z M 197 116 " clip-rule="nonzero"/></clipPath><clipPath id="e88542268a"><path d="M 204.925781 107.5 L 324.765625 131.660156 L 307.273438 218.414062 L 187.433594 194.253906 Z M 204.925781 107.5 " clip-rule="nonzero"/></clipPath><clipPath id="3999f9c040"><path d="M 324.558594 131.621094 L 204.71875 107.457031 L 187.230469 194.210938 L 307.066406 218.375 Z M 324.558594 131.621094 " clip-rule="nonzero"/></clipPath><clipPath id="0d77d41d3b"><path d="M 124 162.777344 L 149.625 162.777344 L 149.625 199 L 124 199 Z M 124 162.777344 " clip-rule="nonzero"/></clipPath><clipPath id="31ceec6ae8"><path d="M 112.125 214 L 140 214 L 140 229.527344 L 112.125 229.527344 Z M 112.125 214 " clip-rule="nonzero"/></clipPath></defs><g clip-path="url(#c7fa5306ed)"><g clip-path="url(#e88542268a)"><g clip-path="url(#3999f9c040)"><path fill="#f4d916" d="M 226.542969 177.921875 C 237.324219 165.746094 245.429688 163.261719 255.667969 168.636719 C 261.761719 171.855469 265.144531 176.945312 266.574219 183.570312 C 267.996094 190.226562 264.960938 195.578125 260.585938 201.265625 C 267.246094 199.378906 270.90625 190.234375 269.5 181.625 C 267.722656 170.578125 257.191406 162.230469 245.742188 162.71875 C 235.820312 163.195312 225.902344 171.796875 226.542969 177.921875 Z M 243.300781 150.527344 C 241.789062 150.453125 242.40625 149.109375 242.417969 148.332031 C 242.644531 138.640625 242.957031 128.9375 243.238281 119.253906 C 243.285156 118.027344 242.441406 116.070312 244.269531 116.003906 C 246.589844 115.925781 245.636719 118.355469 245.621094 119.445312 C 245.421875 129.144531 244.964844 138.847656 244.605469 148.773438 C 244.679688 149.539062 244.558594 150.582031 243.300781 150.527344 Z M 280.328125 186.230469 C 290.242188 187.074219 300.121094 187.945312 310.019531 188.875 C 311.039062 188.964844 312.839844 188.75 312.585938 190.574219 C 312.355469 192.140625 310.707031 191.894531 309.605469 191.785156 C 303.273438 191.171875 296.921875 190.527344 290.597656 189.742188 C 286.464844 189.222656 282.140625 189.675781 278.015625 187.695312 C 278.738281 186.398438 279.503906 186.179688 280.328125 186.230469 Z M 199.484375 142.070312 C 206.445312 148.832031 213.398438 155.648438 220.351562 162.46875 C 220.925781 163.042969 221.671875 163.914062 221.027344 164.535156 C 219.984375 165.5625 219.152344 164.558594 218.382812 163.800781 C 212.527344 157.980469 206.636719 152.183594 200.816406 146.3125 C 199.667969 145.160156 197.90625 144.316406 197.996094 141.882812 C 198.730469 141.945312 199.269531 141.851562 199.484375 142.070312 Z M 272.1875 160.15625 C 277.238281 153.828125 282.3125 147.53125 287.433594 141.273438 C 288.011719 140.554688 288.601562 138.917969 289.789062 140.019531 C 290.835938 140.980469 289.414062 141.875 288.800781 142.644531 C 284.359375 148.375 279.914062 154.136719 275.347656 159.785156 C 274.191406 161.222656 273.480469 163.324219 271.183594 163.699219 C 270.246094 162.070312 271.417969 161.125 272.1875 160.15625 Z M 272.589844 199.882812 C 277.703125 203.679688 282.828125 207.417969 287.9375 211.214844 C 288.515625 211.648438 289.433594 212.238281 288.855469 213.101562 C 288.117188 214.191406 287.308594 213.480469 286.5 212.914062 C 281.542969 209.351562 276.570312 205.871094 271.644531 202.285156 C 271.070312 201.851562 270.734375 201.09375 270.367188 200.613281 C 270.9375 199.085938 271.660156 199.203125 272.589844 199.882812 Z M 224.984375 142.339844 C 225.589844 142.492188 226.351562 142.703125 226.632812 143.164062 C 227.953125 145.332031 229.304688 147.503906 230.300781 149.835938 C 231.089844 151.640625 233.679688 154.234375 231.648438 155.296875 C 229.78125 156.273438 228.980469 152.683594 227.933594 151.003906 C 226.421875 148.507812 225.300781 145.777344 223.96875 143.085938 C 224.414062 142.746094 224.761719 142.296875 224.984375 142.339844 Z M 262.203125 141.085938 C 262.386719 140.75 263.027344 140.707031 263.472656 140.507812 C 263.636719 140.972656 264.0625 141.578125 263.890625 141.859375 C 261.824219 145.535156 260.527344 149.679688 257.050781 152.492188 C 257.59375 148.082031 260.175781 144.710938 262.203125 141.085938 Z M 288.050781 170.789062 C 288.417969 170.6875 289.136719 170.976562 289.332031 171.304688 C 289.71875 171.957031 289.355469 172.75 288.683594 172.933594 C 285.0625 173.902344 281.492188 175.3125 277.644531 174.394531 C 280.789062 171.945312 284.527344 171.691406 288.050781 170.789062 Z M 288.050781 170.789062 " fill-opacity="1" fill-rule="nonzero"/></g></g></g><path fill="#000000" d="M 125.664062 205.699219 L 123.894531 205.46875 C 124.3125 202.199219 124.984375 198.976562 125.890625 195.886719 L 127.597656 196.398438 C 126.722656 199.398438 126.070312 202.527344 125.664062 205.699219 " fill-opacity="1" fill-rule="nonzero"/><g clip-path="url(#0d77d41d3b)"><path fill="#000000" d="M 148.382812 162.96875 C 148.242188 162.988281 144.910156 163.523438 140.71875 165.292969 C 138.25 166.332031 136 167.589844 134.023438 169.023438 C 131.539062 170.832031 129.488281 172.929688 127.925781 175.261719 L 127.761719 175.507812 L 127.953125 180.335938 L 126.101562 178.464844 L 125.613281 179.773438 C 123.710938 184.878906 123.671875 190.859375 125.496094 197.542969 L 125.722656 198.375 L 126.558594 198.183594 C 126.660156 198.15625 129.097656 197.570312 132.410156 195.277344 C 134.332031 193.945312 136.164062 192.308594 137.855469 190.402344 C 139.960938 188.03125 141.855469 185.246094 143.480469 182.117188 L 143.921875 181.273438 L 140.339844 179.628906 L 145.183594 178.511719 L 145.359375 178.085938 C 147.09375 173.910156 148.449219 169.179688 149.394531 164.023438 L 149.625 162.773438 L 148.382812 162.96875 " fill-opacity="1" fill-rule="nonzero"/></g><path fill="#000000" d="M 117.519531 210.4375 L 117.519531 212.890625 L 133.765625 212.890625 L 133.765625 210.4375 C 135.179688 210.421875 136.324219 209.253906 136.324219 207.820312 L 136.324219 206.589844 C 136.324219 205.144531 135.160156 203.96875 133.730469 203.96875 L 117.550781 203.96875 C 116.121094 203.96875 114.957031 205.144531 114.957031 206.589844 L 114.957031 207.820312 C 114.957031 209.253906 116.101562 210.421875 117.519531 210.4375 " fill-opacity="1" fill-rule="nonzero"/><g clip-path="url(#31ceec6ae8)"><path fill="#000000" d="M 112.125 218.21875 L 112.125 226.191406 C 112.125 228.03125 113.601562 229.523438 115.421875 229.523438 L 135.863281 229.523438 C 137.683594 229.523438 139.160156 228.03125 139.160156 226.191406 L 139.160156 218.21875 C 139.160156 216.273438 137.597656 214.691406 135.667969 214.691406 L 115.617188 214.691406 C 113.6875 214.691406 112.125 216.273438 112.125 218.21875 " fill-opacity="1" fill-rule="nonzero"/></g><path fill="#000000" d="M 136.65625 175.417969 C 134.507812 178.027344 132.570312 180.882812 130.894531 183.898438 C 129.257812 186.839844 127.875 189.949219 126.761719 193.164062 L 126.839844 195.328125 C 126.839844 195.328125 127.308594 195.277344 128.035156 194.984375 C 129.171875 191.445312 130.644531 188.03125 132.425781 184.816406 C 134.042969 181.902344 135.914062 179.144531 137.984375 176.621094 C 140.8125 173.175781 145.519531 166.851562 146.53125 166.113281 C 146.53125 166.113281 140.328125 170.953125 136.65625 175.417969 " fill-opacity="1" fill-rule="nonzero"/><g fill="#272727" fill-opacity="1"><g transform="translate(136.08584, 213.216387)"><g><path d="M 53.070312 -7.617188 C 52.6875 -8.570312 51.734375 -9.269531 50.785156 -9.394531 C 44.5625 -10.15625 38.214844 -6.410156 33.199219 -3.175781 C 32.566406 -2.792969 31.929688 -2.414062 31.359375 -1.96875 C 29.453125 -2.539062 27.488281 -2.855469 25.773438 -3.238281 C 21.582031 -4.316406 17.265625 -5.207031 13.140625 -6.410156 C 10.472656 -7.171875 6.664062 -8.378906 5.523438 -11.171875 C 3.9375 -15.109375 7.492188 -19.042969 10.09375 -21.582031 C 15.871094 -27.167969 23.042969 -31.296875 30.789062 -33.644531 C 32.882812 -34.277344 34.976562 -34.785156 37.136719 -35.105469 C 39.039062 -35.421875 42.53125 -36.3125 43.738281 -34.277344 C 46.277344 -30.152344 42.53125 -25.074219 40.183594 -21.964844 C 39.167969 -20.632812 42.214844 -17.773438 43.101562 -18.980469 C 45.578125 -22.34375 48.308594 -26.089844 47.800781 -30.535156 C 47.417969 -33.898438 45.261719 -37.261719 41.898438 -38.40625 C 38.089844 -39.738281 33.007812 -38.214844 29.265625 -37.199219 C 25.011719 -35.929688 20.886719 -34.214844 17.011719 -31.929688 C 13.265625 -29.773438 9.777344 -27.105469 6.664062 -24.058594 C 3.871094 -21.265625 1.269531 -17.648438 1.90625 -13.519531 C 3.300781 -5.460938 13.011719 -3.363281 19.550781 -1.777344 C 22.410156 -1.078125 25.265625 -0.382812 28.121094 0.316406 C 27.105469 1.078125 26.152344 1.839844 25.136719 2.667969 C 22.664062 4.761719 19.742188 7.109375 19.742188 10.664062 C 19.804688 11.933594 21.394531 13.457031 22.664062 13.140625 C 26.472656 12.378906 30.089844 10.726562 33.261719 8.441406 C 35.867188 6.539062 38.722656 4 36.121094 0.890625 C 35.929688 0.636719 35.675781 0.382812 35.484375 0.191406 C 35.675781 0.0625 35.929688 -0.128906 36.121094 -0.253906 C 40.753906 -3.238281 46.785156 -6.730469 52.496094 -5.96875 C 53.511719 -5.839844 53.386719 -7.109375 53.070312 -7.617188 Z M 33.328125 2.921875 C 30.851562 5.332031 27.996094 7.238281 24.820312 8.507812 C 25.964844 7.171875 27.488281 6.09375 28.628906 5.140625 C 30.152344 3.9375 31.675781 2.792969 33.261719 1.652344 C 34.277344 2.03125 34.023438 2.160156 33.328125 2.921875 Z M 33.328125 2.921875 "/></g></g></g><g fill="#272727" fill-opacity="1"><g transform="translate(187.305117, 213.216387)"><g><path d="M 22.28125 -8.0625 C 20.25 -5.902344 15.933594 -2.222656 13.332031 -1.652344 C 13.332031 -1.839844 13.394531 -2.03125 13.394531 -2.222656 C 13.839844 -4.0625 14.410156 -5.96875 14.980469 -7.808594 C 15.363281 -9.015625 13.078125 -11.554688 11.871094 -10.472656 C 8.949219 -7.808594 6.222656 -5.078125 3.109375 -2.667969 C 2.160156 -1.96875 1.207031 -1.207031 0.128906 -0.636719 C 0.316406 -1.207031 0.507812 -1.777344 0.761719 -2.285156 C 1.332031 -3.554688 1.96875 -4.824219 2.855469 -5.902344 C 3.9375 -7.171875 0.953125 -10.03125 -0.0625 -8.824219 C -2.09375 -6.476562 -5.015625 -1.269531 -2.730469 1.714844 C -1.015625 3.9375 1.269531 3.429688 3.363281 2.160156 C 5.648438 0.761719 7.746094 -1.015625 9.777344 -2.855469 C 9.777344 -2.730469 9.777344 -2.667969 9.777344 -2.601562 C 9.457031 -0.761719 9.964844 1.078125 11.679688 2.09375 C 13.265625 3.046875 14.789062 2.285156 16.1875 1.332031 C 19.171875 -0.699219 21.773438 -3.429688 24.25 -5.96875 C 25.390625 -7.109375 23.425781 -9.203125 22.28125 -8.0625 Z M 22.28125 -8.0625 "/></g></g></g><g fill="#272727" fill-opacity="1"><g transform="translate(209.836518, 213.216387)"><g><path d="M 25.328125 -8.1875 C 21.011719 -6.15625 16.1875 -4.125 11.808594 -1.96875 C 12.695312 -3.808594 13.648438 -5.648438 14.726562 -7.425781 C 15.550781 -8.761719 13.457031 -10.980469 12.0625 -10.539062 C 8.761719 -9.523438 5.648438 -7.933594 2.792969 -6.03125 C 2.792969 -6.09375 2.855469 -6.15625 2.921875 -6.222656 C 3.617188 -7.492188 0.507812 -10.21875 -0.382812 -8.632812 C -2.03125 -5.714844 -3.554688 -2.601562 -4.378906 0.636719 C -4.699219 1.777344 -2.347656 4.570312 -1.269531 3.300781 C 1.398438 0.0625 4.632812 -2.601562 8.253906 -4.570312 C 7.617188 -3.363281 7.109375 -2.09375 6.917969 -0.824219 C 6.601562 1.332031 8.632812 3.429688 10.855469 2.921875 C 13.078125 2.414062 15.234375 0.699219 17.140625 -0.445312 C 20.1875 -2.414062 23.296875 -4.316406 26.597656 -5.839844 C 28.183594 -6.601562 26.726562 -8.824219 25.328125 -8.1875 Z M 25.328125 -8.1875 "/></g></g></g><g fill="#272727" fill-opacity="1"><g transform="translate(235.414428, 213.216387)"><g><path d="M 4.316406 -26.789062 C 3.683594 -26.660156 3.109375 -26.34375 2.667969 -25.835938 C 2.03125 -25.203125 2.601562 -24.058594 3.492188 -23.296875 C 3.046875 -22.726562 2.539062 -22.15625 2.09375 -21.710938 C 0.953125 -20.503906 3.9375 -17.582031 5.015625 -18.726562 C 6.601562 -20.378906 8 -22.34375 7.171875 -24.695312 C 6.792969 -25.773438 5.585938 -27.105469 4.316406 -26.789062 Z M 4.316406 -26.789062 "/></g></g></g><g fill="#272727" fill-opacity="1"><g transform="translate(244.680868, 213.216387)"><g><path d="M 11.617188 -8.441406 C 10.285156 -7.933594 7.238281 -7.109375 4.0625 -5.648438 C 3.746094 -5.96875 3.429688 -6.285156 3.109375 -6.664062 C 2.347656 -7.617188 1.777344 -9.902344 3.808594 -9.777344 C 4.761719 -9.710938 4.699219 -10.855469 4.378906 -11.425781 C 4 -12.25 3.046875 -13.078125 2.09375 -13.140625 C -1.078125 -13.394531 -1.523438 -9.839844 -0.382812 -7.554688 C 0.253906 -6.285156 1.332031 -5.394531 2.222656 -4.253906 C -1.269531 -1.398438 -3.746094 2.160156 -0.316406 5.015625 C 2.921875 7.679688 5.96875 3.746094 6.410156 0.636719 C 6.539062 -0.316406 6.476562 -1.269531 6.222656 -2.160156 C 8.1875 -3.683594 10.410156 -4.886719 12.695312 -5.777344 C 14.347656 -6.410156 13.011719 -9.015625 11.617188 -8.441406 Z M 11.617188 -8.441406 "/></g></g></g><g fill="#272727" fill-opacity="1"><g transform="translate(208.329058, 228.61828)"><g><path d="M 8.703125 0 L 1.171875 0 L 1.171875 -10.5 L 8.875 -10.5 C 10.238281 -10.5 11.363281 -10.4375 12.25 -10.3125 C 13.132812 -10.1875 13.8125 -9.988281 14.28125 -9.71875 C 14.757812 -9.457031 15.082031 -9.117188 15.25 -8.703125 C 15.425781 -8.296875 15.515625 -7.8125 15.515625 -7.25 C 15.503906 -6.789062 15.378906 -6.414062 15.140625 -6.125 C 14.910156 -5.832031 14.640625 -5.613281 14.328125 -5.46875 C 14.023438 -5.320312 13.753906 -5.25 13.515625 -5.25 C 13.742188 -5.25 14.007812 -5.203125 14.3125 -5.109375 C 14.625 -5.023438 14.925781 -4.894531 15.21875 -4.71875 C 15.507812 -4.550781 15.75 -4.34375 15.9375 -4.09375 C 16.132812 -3.851562 16.234375 -3.578125 16.234375 -3.265625 C 16.234375 -2.859375 16.1875 -2.484375 16.09375 -2.140625 C 16 -1.796875 15.804688 -1.488281 15.515625 -1.21875 C 15.234375 -0.957031 14.8125 -0.734375 14.25 -0.546875 C 13.695312 -0.367188 12.96875 -0.234375 12.0625 -0.140625 C 11.164062 -0.046875 10.046875 0 8.703125 0 Z M 8.453125 -6.15625 C 9.097656 -6.15625 9.597656 -6.1875 9.953125 -6.25 C 10.304688 -6.3125 10.550781 -6.40625 10.6875 -6.53125 C 10.832031 -6.664062 10.90625 -6.832031 10.90625 -7.03125 C 10.90625 -7.238281 10.832031 -7.40625 10.6875 -7.53125 C 10.550781 -7.664062 10.304688 -7.757812 9.953125 -7.8125 C 9.597656 -7.875 9.097656 -7.90625 8.453125 -7.90625 L 5.578125 -7.90625 L 5.578125 -6.15625 Z M 8.453125 -2.59375 C 9.117188 -2.59375 9.65625 -2.609375 10.0625 -2.640625 C 10.46875 -2.679688 10.765625 -2.757812 10.953125 -2.875 C 11.148438 -3 11.25 -3.195312 11.25 -3.46875 C 11.25 -3.738281 11.148438 -3.9375 10.953125 -4.0625 C 10.765625 -4.1875 10.46875 -4.265625 10.0625 -4.296875 C 9.65625 -4.328125 9.117188 -4.34375 8.453125 -4.34375 L 5.578125 -4.34375 L 5.578125 -2.59375 Z M 8.453125 -2.59375 "/></g></g></g><g fill="#272727" fill-opacity="1"><g transform="translate(224.192778, 228.61828)"><g><path d="M 13.4375 0 L 1.171875 0 L 1.171875 -10.515625 L 5.578125 -10.515625 L 5.578125 -2.59375 L 13.4375 -2.59375 Z M 13.4375 0 "/></g></g></g><g fill="#272727" fill-opacity="1"><g transform="translate(236.965678, 228.61828)"><g><path d="M 7.953125 0.234375 C 5.347656 0.234375 3.4375 -0.300781 2.21875 -1.375 C 1.132812 -2.320312 0.59375 -3.613281 0.59375 -5.25 C 0.59375 -6.882812 1.132812 -8.175781 2.21875 -9.125 C 3.4375 -10.1875 5.347656 -10.71875 7.953125 -10.71875 C 10.546875 -10.71875 12.457031 -10.1875 13.6875 -9.125 C 14.769531 -8.175781 15.3125 -6.882812 15.3125 -5.25 C 15.3125 -3.613281 14.769531 -2.320312 13.6875 -1.375 C 12.457031 -0.300781 10.546875 0.234375 7.953125 0.234375 Z M 7.953125 -2.59375 C 9.015625 -2.59375 9.796875 -2.898438 10.296875 -3.515625 C 10.691406 -4.003906 10.890625 -4.582031 10.890625 -5.25 C 10.890625 -5.914062 10.691406 -6.492188 10.296875 -6.984375 C 9.796875 -7.597656 9.015625 -7.90625 7.953125 -7.90625 C 6.878906 -7.90625 6.09375 -7.597656 5.59375 -6.984375 C 5.195312 -6.492188 5 -5.914062 5 -5.25 C 5 -4.582031 5.195312 -4.003906 5.59375 -3.515625 C 6.09375 -2.898438 6.878906 -2.59375 7.953125 -2.59375 Z M 7.953125 -2.59375 "/></g></g></g><g fill="#272727" fill-opacity="1"><g transform="translate(251.899224, 228.61828)"><g><path d="M 7.953125 0.234375 C 5.347656 0.234375 3.4375 -0.300781 2.21875 -1.375 C 1.132812 -2.320312 0.59375 -3.613281 0.59375 -5.25 C 0.59375 -6.882812 1.132812 -8.175781 2.21875 -9.125 C 3.4375 -10.1875 5.347656 -10.71875 7.953125 -10.71875 C 9.429688 -10.71875 10.660156 -10.550781 11.640625 -10.21875 C 12.617188 -9.894531 13.382812 -9.441406 13.9375 -8.859375 C 14.5 -8.285156 14.882812 -7.628906 15.09375 -6.890625 L 10.375 -6.890625 C 9.882812 -7.566406 9.078125 -7.90625 7.953125 -7.90625 C 6.878906 -7.90625 6.09375 -7.597656 5.59375 -6.984375 C 5.195312 -6.492188 5 -5.914062 5 -5.25 C 5 -4.570312 5.195312 -3.992188 5.59375 -3.515625 C 6.09375 -2.898438 6.878906 -2.59375 7.953125 -2.59375 C 8.804688 -2.59375 9.445312 -2.664062 9.875 -2.8125 C 10.3125 -2.96875 10.628906 -3.164062 10.828125 -3.40625 L 9.109375 -3.40625 L 9.109375 -5.25 L 15.09375 -5.25 L 15.09375 0 L 13.265625 0 L 12.890625 -1.015625 C 11.722656 -0.179688 10.078125 0.234375 7.953125 0.234375 Z M 7.953125 0.234375 "/></g></g></g></svg>